<svg width="705" height="201" viewBox="0 0 705 201" fill="none" xmlns="http://www.w3.org/2000/svg">
<g id="logo 1" clip-path="url(#clip0)">
<g id="L">
<path id="Vector" d="M10.4 199.9L0.3 190.5L1.9 174.2C2.8 173.9 4.4 173.4 5.4 173C11 160.4 7.2 152.6 8.3 135.1C8 97.7 9.2 52.9 8.1 32.8C7.1 32.4 2.1 29.6 1.1 29.3L0 24.9L0.1 2.9L50.9 2.5L56.7 12.7L57 29.1C55.8 29.4 54.5 30.1 51.7 31.8C51 72 51.9 133.4 51.4 173.2C60.8 172.8 61.5 170.5 61.8 162.8C62.3 154.9 63.2 147.1 63.8 140.9L80.6 135.4L85.9 144.6L86.9 200L10.4 199.9V199.9Z" fill="black"/>
<path id="Vector_2" d="M0.3 190.5V168.2C2.6 167.4 5.5 166.4 7.9 165.4C8.1 138.3 8.1 54.8 7.9 27.7C6.5 27 2 25.6 0 24.9V2.5H50.9V25C48.4 25.8 45 26.7 42.3 27.7C41.9 66.6 42.4 127.5 42.1 165.9C61.3 166.8 56.5 148.3 58.8 135.2H80.6V190.5H0.3Z" fill="black"/>
<path id="Vector_3" d="M1.3 189.5V168.9C3.4 168.1 6.8 167.1 8.8 166C9.2 138.3 9.3 54.7 8.8 27C8 26.5 3 24.8 1 24.1V3.5H49.9V24.2C47.6 24.9 43.4 26.1 41.4 27C40.8 66.6 41.5 127.8 41.1 166.9C62.3 167.9 57.4 150.4 59.7 136.2H79.6V189.5H1.3Z" fill="white"/>
<path id="Vector_4" d="M3.3 187.5V170.3C15.6 168.2 9.8 158.3 11 152.8V94.4C9.7 30.9 16 24.9 3 22.7V5.5H47.9V22.7C36.7 25.2 39.5 27.5 39.2 33.5V57.9C39.4 112 38.9 127.8 39.3 168.7C62.8 170.6 59.5 154.5 61.5 138.2H77.6V187.5H3.3Z" fill="#020202"/>
<path id="Vector_5" d="M5.3 185.5V171.7C17.3 169.4 11.9 158.6 13 153.5V95.5C11.4 37.6 18.5 23 5 21.3V7.5H45.9V21.3C34.7 23.5 37.6 28.4 37.2 33.8V58.8C37.2 110.6 37.3 124.6 37.1 163.2C33.8 177 54.8 169.5 57.6 165.6C62.8 160.3 62.3 148.3 63.3 140.1H75.5V185.4H5.3V185.5Z" fill="#FAFAFA"/>
</g>
<g id="U">
<path id="Vector_6" d="M111.9 172.1C111.9 172.1 110.3 171.3 110.3 171.2C78.6 166.6 84.2 130 83.3 107C83.1 85.3 83.3 49.5 83.1 27.4C82.3 27.2 81.2 26.9 80.4 26.6L75.8 25L74.7 21.8L75.3 0.899994H122.1L129.1 8.79999L130 26C130 26 126.9 26.2 126.7 26.2C120.5 29.9 124.7 40.2 123.6 48.8V109.1C124.4 120.1 121.2 142.1 126.8 141.7C126.1 141.8 124 141.9 123.6 141.9C129.6 141.9 134.6 140.2 135.1 139.4C137.1 108.3 135.5 59.6 135.9 27.9C135.8 27.9 130.8 27 130.8 27L129.2 23.1L128.9 1.59999H167L173.7 8.59999L174 25.6C171.9 26.5 169 27.6 166.9 28.3C164.7 139.3 176.9 160.3 137.4 171.8C137.2 171.9 136 172.5 135 172.9L111.9 172.1V172.1Z" fill="black"/>
<path id="Vector_7" d="M109.8 165.8C109.4 165.6 109.1 165.4 108.3 165C77.7 161.5 83.7 129.9 82.6 108.4C82.3 84.6 83 48 82.3 24C81.7 23.6 76.4 22.3 74.6 21.8V0.899994H122V22.5C110.8 21.8 116 31.5 114.9 37.1C115 50.5 115 72.5 115 89.2C116.2 129 107.8 152.9 134.4 138.1C136.6 110.8 134.7 96.8 135.3 64.3C134.2 29 139.5 22.5 128.2 23.7V1.59999H167.3V22C165.1 22.8 162 23.7 159.6 24.8C156.9 141.2 168.8 156.2 134 165.4C133.6 165.6 133.2 165.8 131.9 166.4L109.8 165.8V165.8Z" fill="black"/>
<path id="Vector_8" d="M110.1 164.8C109.8 164.6 109.6 164.6 108.7 164C71.8 160.9 86.8 104 83.5 79.6C82.6 19.5 87.4 23.7 75.6 21V1.89999H121V21.6C109.9 20.8 115 32.8 113.9 38.6C113.9 52.3 114 74 114 90.1C115.3 128.6 106.4 154.4 135.1 138.9C138.2 115.7 135.3 99.5 136.3 74.4C135 35 141 20.5 129.2 22.7V2.59999H166.3V21.3C164.4 22 160.2 23.2 158.8 24.2C155.3 138.7 168.5 155.6 133.7 164.5C133.3 164.7 132.9 164.9 131.7 165.4L110.1 164.8Z" fill="white"/>
<path id="Vector_9" d="M110.6 162.8C110.6 162.8 110.1 162.5 109.4 162.1C75.5 159.4 88.3 112 85.6 88.8C84.3 20 90 22.1 77.6 19.4V3.89999H119V19.9C107.5 19.9 113.2 35.5 111.9 42V93.8C113.3 127.5 103.5 157.3 136.1 140.8C141.4 113.9 136.6 96.4 138.1 62.3C136.6 44.9 143 18.2 131 20.9V4.59999H164.1V19.9C151.3 22.5 157.6 31.8 156.2 39.9V93.9C154.4 138.3 163.9 154.3 131.2 163.5L110.6 162.8Z" fill="black"/>
<path id="Vector_10" d="M111.1 160.8C78.9 157.4 89.8 118.4 87.6 95.7C86 28.5 92.5 19.7 79.6 18V5.89999H117V18.1C105.5 19.8 111.2 36 110 41.3V88.1C111.6 125.3 103 151.3 126 146.6C143.8 145.1 139.5 132.5 140.2 124.4V84.8V38.9C139.4 33.5 143.7 19.4 133.1 18.9V6.59999H162.2V18.4C150.2 20.6 155.4 32 154.3 38.3C154.3 55.6 154.3 82.9 154.2 105.5C152.4 132.2 161.8 154.1 130.9 161.4C127 161.5 115.1 160.8 111.1 160.8V160.8Z" fill="white"/>
</g>
<g id="S">
<path id="Vector_11" d="M207.383 133.023C202.683 131.223 196.883 129.823 191.983 126.023C187.783 131.123 180.483 129.723 174.183 130.223L169.783 126.323L170.083 68.5228H182.783C143.783 36.3228 182.083 -18.9772 222.583 6.52278C226.783 2.92278 233.383 1.12278 238.683 5.52278L243.483 9.92278L243.683 58.8228L239.983 57.7228C240.583 59.0228 231.983 56.5228 235.783 59.1228C255.683 77.2228 259.983 119.123 226.283 131.823L218.683 133.223H207.383V133.023ZM193.083 77.2228C199.983 122.323 234.883 100.323 193.083 76.9228V77.2228ZM201.783 24.9228C191.583 29.0228 212.583 41.1228 215.783 44.8228C213.883 36.6228 212.083 26.4228 201.783 24.9228Z" fill="black"/>
<path id="Vector_12" d="M205.383 129.023C200.483 127.223 194.083 125.423 189.183 121.323C185.583 127.623 176.183 125.723 169.583 126.323V68.5228H185.583C140.683 35.3228 181.883 -19.5772 220.283 7.12277C224.883 1.72277 232.583 2.22277 239.183 5.02277V54.7228H225.283C252.983 73.1228 252.283 121.123 215.883 129.023H205.383ZM190.283 72.6228C196.483 129.023 243.083 101.823 190.183 72.3228L190.283 72.6228ZM201.783 22.9228C185.683 28.4228 214.083 44.8228 218.483 49.4228C216.783 39.3228 214.883 24.4228 201.783 22.9228Z" fill="black"/>
<path id="Vector_13" d="M205.583 128.023C200.483 126.223 193.883 124.223 188.983 119.823C185.483 126.623 177.483 124.623 170.583 125.223V69.5228H188.383C140.183 35.3228 183.583 -18.8772 220.383 8.52277C224.483 3.02277 231.683 3.02277 238.183 5.82277V53.8228H222.483C251.383 71.7228 252.683 119.523 215.883 128.123H205.583V128.023ZM189.283 72.8228C194.283 121.123 228.383 109.023 211.883 87.6228C204.283 80.1228 196.483 76.5228 188.683 69.8228L189.283 72.8228ZM201.783 21.9228C182.883 28.3228 214.283 46.2228 219.883 51.8228C217.883 40.5228 216.583 23.6228 201.783 21.9228Z" fill="white"/>
<path id="Vector_14" d="M205.983 126.023C200.283 124.223 193.783 121.723 188.483 116.823C185.183 124.223 180.083 122.923 172.683 123.123V71.5228H187.083C192.383 124.423 229.883 111.423 214.883 88.0228C202.383 74.7228 186.883 69.0228 175.983 54.7228C152.483 22.6228 192.483 -13.9772 220.883 11.5228C224.083 5.72277 230.083 4.62277 236.283 7.22277V51.7228H221.983C218.383 9.72277 189.183 16.4228 194.683 32.3228C206.483 47.8228 226.983 55.0228 236.783 71.6228C247.783 91.9228 241.083 120.823 215.583 126.023H205.983V126.023Z" fill="black"/>
<path id="Vector_15" d="M206.383 124.023C199.783 122.123 193.783 119.023 187.983 113.923C185.283 120.123 181.783 121.923 174.683 121.023V73.5228H185.383C191.283 128.623 234.283 112.523 215.883 86.0228C203.483 73.3228 186.483 66.5228 176.083 51.4228C156.583 19.0228 196.883 -11.1772 221.483 14.9228C223.783 8.92278 227.783 6.42278 234.183 8.62278V49.7228H223.583C219.483 5.62278 185.083 15.0228 193.083 33.6228C204.883 48.9228 224.583 56.0228 234.783 72.1228C246.083 92.2228 238.283 119.423 215.283 124.023H206.383V124.023Z" fill="white"/>
</g>
<g id="C">
<path id="Vector_16" d="M278.4 107.072C244.5 100.672 245.7 71.3721 245 50.2721C245 16.3721 266.6 -10.8279 299.5 4.27214C303.7 0.772137 313.7 2.47214 319.6 2.17214V47.8721H295.4C288.7 -0.727859 281.6 32.7721 282.2 55.7721C282.1 62.1721 282.3 94.4721 291.1 81.8721C294.2 73.4721 293.2 64.1721 293.2 54.9721H319.9C321.6 82.1721 319.4 101.372 291.3 106.872H278.4V107.072Z" fill="black"/>
<path id="Vector_17" d="M283.4 109.272C251.4 103.072 252.7 75.7722 251.7 55.6721C251.1 22.4721 272 -6.22785 304.4 10.2722C306.9 7.77215 311.8 7.37215 315.5 7.47215C316.5 6.67215 318.8 2.47215 319.6 2.17215L324.1 9.87215L323.8 50.0722H301.9L295.4 47.7721C295.2 46.6721 300.7 43.8722 300.8 42.5722C299.6 37.2722 299.7 28.0721 293.7 25.2722C281.6 22.0721 285.4 77.2721 286.9 83.8721C287.6 87.0721 289.1 91.1721 295.1 89.6721C302.3 85.5721 299.7 68.4721 300.2 60.4721L320.1 54.9721L323.7 60.3722C325.3 84.9722 321.6 104.472 296 109.172H283.4V109.272Z" fill="black"/>
<path id="Vector_18" d="M278.8 104.672C247.6 98.5721 249 71.4722 248 51.8722C247.4 19.2722 268 -9.62785 299.8 7.57215C303.5 3.27215 310.8 4.87215 316.6 4.77215V45.5722H298C297.4 38.0722 292.7 8.87215 282.4 25.3722C278.1 42.6722 278.3 60.4722 281.2 81.4722C282.3 85.0722 283.9 87.6722 289 87.0722C298.7 86.1722 295.7 63.2721 296.2 57.6721H317C318.6 81.9721 316.1 99.9721 290.8 104.772H278.8V104.672Z" fill="white"/>
<path id="Vector_19" d="M279 103.072C249.5 97.1722 251.1 71.1722 249.9 52.7722C248.9 20.4722 269.5 -8.92784 300.1 9.97216C303.4 5.27216 308.6 6.27216 314.6 6.37216V43.9722H299.7C299.3 34.4722 293.3 7.87216 281 23.6722C275.6 41.0722 276.5 59.1722 278.9 80.5722C279.5 85.6722 283.9 89.8722 289.6 88.5722C300.6 86.6722 297.7 66.6722 298.2 59.1722H315C316.5 81.0722 314 98.8722 290.5 103.072H279Z" fill="black"/>
<path id="Vector_20" d="M279.3 101.472C254 96.4721 253.1 74.9721 252 55.0721C250.3 24.7721 268.8 -9.22786 300.3 12.3721C303.2 8.27214 306.9 7.07214 312.6 7.97214V42.3721H301.5C300.8 29.9721 294.7 8.67214 280.5 20.9721C272.1 39.6721 274.8 70.1721 278.2 84.6721C296.1 103.872 302.3 74.0721 300.3 60.8721H313.2C314.5 81.2721 311.9 97.6721 290.3 101.572C286.6 101.472 282.9 101.472 279.3 101.472V101.472Z" fill="white"/>
</g>
<g id="A">
<path id="Vector_21" d="M324.8 105.6L318.1 97.1L324.8 84.2C325.4 84.2 332.4 84.7 332.8 84.7C344 51 351.4 9.59999 357.8 7.29999C364.3 3.49999 372.6 7.09999 378.9 5.19999C379.3 3.89999 377.9 0.699988 379.2 0.299988L389.6 5.59999C395.9 30.1 402.3 54.9 408.8 79.5L416.9 84L417.7 105.5H324.8V105.6ZM352.4 78.1C353.2 78.3 356.5 79 357.7 79.3C360.2 78.7 360.4 78.7 363.4 77.9C363.2 76.6 363 75.5 362.4 72.5H354C353.3 74.8 353.1 75.7 352.4 78.1V78.1Z" fill="black"/>
<path id="Vector_22" d="M318 97.2V79.2C321.5 78.7 325.3 81.6 326.5 76.9C334 50.7 339.7 30.5 346.7 6.00001C350.4 -4.09999 370.8 2.00001 379.2 0.400012C403.6 91.2 395.4 78.9 407 78.9V97.1H357.9V80.9C360.2 80.3 363 79.7 365.5 79C365.3 77 364.7 74.3 364.2 70.9H352.5C351.9 73.2 350.7 76.7 350.2 79.2C352 79.7 355.5 80.4 357.2 80.8C357.3 85.9 357.3 91.4 356.5 97.2H318V97.2ZM361 52.8L359.3 44.3L357.1 52.8H361Z" fill="black"/>
<path id="Vector_23" d="M319 96.4V80C322.8 79.7 325.9 82.2 327.4 77.1C334.9 51.4 340.6 29.8 348 5.39999C352.4 -2.50001 370.6 2.79999 378.3 1.29999C402.1 89.3 394.7 80.3 405.9 79.9V96.4H358.8V81.5C360.9 81 364.4 80.2 366.4 79.5C366.4 77.4 365.4 73.4 364.9 70.1H351.5C350.9 72.5 349.3 77.1 348.9 79.7C350.6 80.3 353.9 80.9 356 81.4C356 86.1 356.1 91 355.4 96.4H319V96.4ZM362.2 53.5L359.4 39.9L355.8 53.5H362.2V53.5Z" fill="white"/>
<path id="Vector_24" d="M321 94.8V81.7C327.9 82.6 328.9 80.2 330.7 73C337.2 49.9 343.1 29.6 349.7 6.59999C352.8 -0.800013 369.6 4.19999 376.8 2.79999C398.3 81.5 393.1 83 404 81.6V94.8H360.9V82.6C372.9 80.7 367.5 78 366.8 68.5H350C348.1 77.4 343 81.3 354.1 82.6C354.1 86.5 354.3 90 353.7 94.8H321ZM364.5 55.1L359.6 31.2L353.3 55.1H364.5Z" fill="black"/>
<path id="Vector_25" d="M348.4 67C347.5 73.8 339.5 82.8 352.1 83.9C352 86.8 352.4 89.1 351.8 93.3H323V83.5C332.7 83.9 331.3 75.3 334 68.5C339.8 47.9 345.6 28.4 351.3 7.90001C353.3 1.00001 369.9 5.80001 375.1 4.40001C394 72.4 391.4 84.8 402 83.3V93.2H362.9V83.8C375.4 82.3 368.9 75.6 368.6 67H348.4V67ZM360.4 25.1H359.2C356.5 35.6 353.7 46.1 350.9 56.7H366.9C364.7 45.9 362.5 35.5 360.4 25.1Z" fill="white"/>
<path id="Vector_26" d="M348.5 58.3L357.6 23.5H362.1L369.2 58.3H348.5Z" fill="black"/>
<path id="Vector_27" d="M360.4 25.1C362.5 35.5 364.6 45.9 366.8 56.7H350.8C353.6 46 356.3 35.6 359.1 25.1H360.4Z" fill="white"/>
<path id="Vector_28" d="M352.1 55.9L359.8 26.8L365.7 55.9H352.1Z" fill="black"/>
</g>
<g id="F">
<path id="Vector_29" d="M418.2 107.6C411.3 97.3 416.6 93 418.3 85C421.1 82.2 425.6 85.5 425 81.6C424.1 74.3 427.1 29.7 423.4 30.9C414.7 33.9 420 14.5 418.6 8.00001C416.8 4.50001 438.2 4.60001 453.8 2.10001C464.2 1.70001 461.7 -0.999992 468.3 3.00001C476.5 7.90001 472.5 6.50001 473.4 14.6C473 56.7 476.9 42.6 460.9 46.8C460.1 47.5 460.9 64 460.7 66.5C460.8 70.8 450.1 65.5 451.4 71.2C450 81.3 453.4 82.1 458.1 88.1C459.3 113.9 462.8 107.8 440.4 108.5C428.1 107.9 420.5 109.7 418.2 107.6Z" fill="black"/>
<path id="Vector_30" d="M414.1 97.4C412.1 63.2 421.1 88.3 420.5 72.7V23.1C420.3 20 413.8 22.9 414.1 19.6C414.9 9.09999 411.5 -0.900009 418 0.799991H462.8C464 0.499991 465.3 1.99999 464.9 4.09999C464.2 13.1 466.7 37.6 463.2 36.6C440.2 35.9 444.6 41.2 444.2 21.5H443C443 44.9 441.3 35.5 452 39.1C452.4 40.9 453 57.8 451.4 58.7C449.4 59.9 444.8 57.7 443.2 59.7C442.5 60.3 443.2 74.1 443 76.6C442.4 80.3 449.6 76.5 450.3 80.1C450.7 108.3 453.5 96.9 417.8 99.1C415.8 98.6 415.7 100.3 414.1 97.4V97.4Z" fill="black"/>
<path id="Vector_31" d="M415.1 96.4C413.1 65.1 422.3 89.2 421.5 73.4V22.1C420.9 18.3 414 23 415.1 17C415.5 8.9 413.8 1.4 416.9 1.8H454C465.9 2 463.7 -0.699998 463.9 14.5C462.7 30.8 468.1 37 457 35.6C450.3 35.2 447.5 36.6 445.5 34.8C444.3 32.5 447.2 14.9 442 22.2C442.4 25.2 441 38.2 442.8 39.1C444.8 40.3 449.4 38.1 451 40.1C451.8 40.6 451 55.9 451.2 56.3C450.3 60 441.5 55.9 442 59.7C443.1 66.5 438.2 82.3 447.7 79.4C450.6 80.1 448.9 84.3 449.3 90.4C449.3 96.8 449.8 97.9 447.2 98.1C441.6 97.3 414.3 100 415.1 96.4V96.4Z" fill="white"/>
<path id="Vector_32" d="M417.1 94.4C415.3 69.3 424.7 90.9 423.5 74.7V20.3C418.9 14 416.2 25.9 417.1 5.70001C416.8 2.10001 424.8 4.40001 435.3 3.80001C462.7 4.90001 462.4 -0.799987 461.9 13.3C460.9 26.5 465.1 34.9 457.3 33.6C451.1 33.2 447.8 34.8 447.2 31.9C446.8 29 448.2 19.8 446.4 18.7C444.2 18.1 439.9 18 440 20.1V39.6C439.9 40.5 441.4 41.4 442.1 41.2C453 39.5 448.1 46.5 449.2 53.9C440.1 62.3 439.4 42.5 440 79.7C439.7 82.1 444.3 81 446.5 81.6C448 83.2 447.9 94.2 446.5 95.8C444.7 95.9 416.8 97.7 417.1 94.4V94.4Z" fill="black"/>
<path id="Vector_33" d="M419.1 92.4C417.7 73.8 426.9 91.9 425.5 76.5V18.4C425.6 18.7 425.9 16.7 423.6 16.4C421 16.5 419.3 16.6 419.1 14.7C418 1.6 421.1 6.7 434.1 5.8C459.3 6.9 460.7 1.3 459.9 14.6C459.7 22.6 460.2 29.4 459.7 30.8C457.1 32.6 447.7 32.4 449.3 28.9C448.9 23.7 450.3 18.3 448.5 16.8C445 16.1 436.8 15.9 438.1 18.8V41.7C441.9 47.4 449 36.9 447.3 52C438.4 61.2 437.4 38.9 438.1 81.4C439.5 87.7 447.2 77.1 445.4 92.5C445.3 95.9 438.5 93.7 430.2 94.2C422.9 93.5 420.5 95.6 419.1 92.4V92.4Z" fill="white"/>
</g>
<g id="I">
<path id="Vector_34" d="M476.9 123.5L473 112.1L476.9 98.9H483.6V32.2H476.9L473 20.7L476.9 7.50001L508.9 0.100006L516.8 7.50001V32.2H510.1V92.1L516.8 98.9V123.5H476.9Z" fill="black"/>
<path id="Vector_35" d="M473 112.1V91.5H479.7V20.8H473V0.100006H508.9V20.8H502.2V91.5H508.9V112.1H473Z" fill="black"/>
<path id="Vector_36" d="M474 111.1V92.5H480.7V19.8H474V1.10001H507.9V19.8H501.2V92.5H507.9V111.1H474Z" fill="white"/>
<path id="Vector_37" d="M476 109.1V94.5H482.7V17.8H476V3.10001H505.9V17.8H499.2V94.5H505.9V109.1H476Z" fill="black"/>
<path id="Vector_38" d="M478 107.1V96.5H484.7V15.8H478V5.10001H504V15.8H497.3V96.5H504V107.2H478V107.1Z" fill="white"/>
</g>
<g id="L_2">
<path id="Vector_39" d="M527.6 149.7L517.5 140.3L519.1 129.3C520 129 521.6 128.5 522.6 128.1C524.8 123.5 526 119.5 525.4 115C525.1 88.9 526.5 54 525.3 30.6C524.3 30.2 519.3 27.4 518.3 27.1L517.2 22.6L517.3 0.699988L559 0.299988L564.8 10.5L565.2 26.9C564 27.2 562.7 27.9 559.9 29.6C559.2 50.8 560 108.9 559.6 128.4C569 128 569.7 125.7 570 118C570.5 110.1 571.4 102.3 572 96.1L584.4 90.6L589.7 99.8L590.7 150L527.6 149.7V149.7Z" fill="black"/>
<path id="Vector_40" d="M517.5 140.3V123.2C519.8 122.4 522.7 121.4 525.1 120.4C525.3 94.6 525.3 51.3 525.1 25.4C523.6 24.7 519.2 23.3 517.2 22.6V0.299988H559V22.8C556.5 23.6 553.1 24.5 550.4 25.5C550 44.7 550.5 104.9 550.2 121C569.4 121.9 564.6 103.4 566.9 90.3H584.3V140.3H517.5Z" fill="black"/>
<path id="Vector_41" d="M518.5 139.3V123.9C520.6 123.1 524 122.1 526 121C526.4 94.9 526.4 51 526 24.7C525.2 24.1 520.2 22.5 518.2 21.8V1.29999H558V22C555.7 22.7 551.5 23.9 549.5 24.8C548.9 45.2 549.6 104 549.2 122C570.4 123 565.5 105.5 567.8 91.3H583.3V139.3H518.5V139.3Z" fill="white"/>
<path id="Vector_42" d="M520.5 137.3V125.3C525 123.4 528.8 123.5 528.2 119C528.3 103.9 528.2 89.6 528.2 71C526.8 31.5 533.1 22.4 520.1 20.5V3.29999H556V20.5C547.2 22.8 546.9 22.9 547.3 30.6V50.4C547.5 87.6 547 103.3 547.4 123.7C570.9 125.6 567.6 109.5 569.6 93.2H581.3V137.2H520.5V137.3Z" fill="#020202"/>
<path id="Vector_43" d="M522.5 135.3V126.8C527.6 125 530.2 124.2 530.2 120.3C530.5 104.9 530.2 90.9 530.3 72.4C528.7 36.9 535.7 20.8 522.2 19.1V5.29999H554V19C544.3 21.2 545.3 23.7 545.3 30.8V50.4C545.3 83.4 545.4 106.6 545.2 118.9C542.4 133 565.6 122.7 565.7 120.7C570.9 115.4 570.4 103.4 571.4 95.2H579.3V135.2H522.5V135.3Z" fill="#FAFAFA"/>
</g>
<g id="M">
<path id="Vector_44" d="M590.3 198.1L583.8 187.8L590.3 152.9H599.7V39.8H590.3L583.8 29.5L590.3 4.6H646.1L647.2 10.7L648.2 4.6L692.1 0L704.3 4.6V39.8H694.9L693.7 149.3L704.5 170.3V198.1H590.3Z" fill="black"/>
<path id="Vector_45" d="M583.8 187.8V148.3H593.2V29.5H583.8V0H634.3L637.9 20L641.2 0H692.1V29.5H682.7V148.3H692.3V187.8H583.8ZM623 148.3L622.7 146.8V148.3H623Z" fill="black"/>
<path id="Vector_46" d="M585.2 186.4V149.7H594.6V28.1H585.2V1.39999H633.1L638 28.3L642.4 1.39999H690.6V28H681.2V149.6H690.8V186.3H585.2V186.4ZM651.9 149.7V95.3L649 149.7H651.9ZM624.7 149.7L621.3 93.2V149.7H624.7Z" fill="white"/>
<path id="Vector_47" d="M645.3 183.5V154.5L642.1 183.5H632L620 68.9L618.6 58.4V152.5H628V183.5H588.2V152.5H597.6V25.2H588.2V4.29999H630.9C632.9 15.9 637.2 36.2 638.1 48.4C639.6 35.7 643.1 16.5 645 4.29999H688V25.2H678.6V152.5H688.2V183.5H645.3V183.5ZM654.7 152.5V61L654.4 63.6L645.6 152.6H654.7V152.5Z" fill="black"/>
<path id="Vector_48" d="M590.9 180.7V155.4H600.3V22.3H590.9V7.10001H628.3C632.3 26.1 636 52.4 637.3 72.3H637.8C640.2 51.6 643.8 26.7 647.2 7.10001H685V22.3H675.6V155.4H685.2V180.7H648.2V155.4H657.6C657.6 130.7 657.1 43 658.9 20.1H657.2C652.6 48.7 642.7 150.3 639.6 180.7H634.2C630.8 147.2 621.2 51.9 616.2 20.1H614.5C615.9 42.6 615.5 131.3 615.5 155.4H624.9V180.7H590.9V180.7Z" fill="white"/>
</g>
</g>
<defs>
<clipPath id="clip0">
<rect width="704.5" height="200.1" fill="white"/>
</clipPath>
</defs>
</svg>
